<svg xmlns="http://www.w3.org/2000/svg" viewBox="0 0 100 100">
  <path
    d="M50.763 6.008c-4.138.17-8.228 2.289-10.849 6.08-2.606-.483-5.247-.132-7.494 1.07-2.39 1.28-4.28 3.597-5.065 6.565-2.374 1.115-3.94 3.337-4.278 5.735-.362 2.572.56 5.316 2.601 7.427l7.392 59.18c.131 1.052 1.106 1.927 2.156 1.935h30.081c1.061.01 2.058-.872 2.19-1.935l7.392-59.318c1.588-2.031 2.396-4.688 2.02-7.393-.359-2.569-1.921-5.112-4.62-6.771a7.869 7.869 0 00-2.875-5.562c-1.831-1.498-4.458-2.157-7.392-1.59-2.634-3.493-6.526-5.325-10.404-5.423a12.143 12.143 0 00-.855 0zm.17 4.422c3.157-.131 6.276 1.302 8.248 4.664.508.87 1.656 1.296 2.601.967 2.472-.848 3.949-.359 4.894.414.945.774 1.363 1.982 1.198 3.04-.154.965.41 2 1.3 2.384 2.362 1.051 3.172 2.49 3.388 4.042.174 1.25-.196 2.612-.855 3.662H46.793c-1.969.056-2.48.877-2.6 2.66v19.382c0 1.095-.348 1.658-.856 2.107-.509.449-1.29.72-2.088.726-.798.01-1.557-.255-2.053-.691-.497-.436-.856-.995-.856-2.142V32.333c.036-1.846-.877-2.63-2.43-2.73h-7.289c-1.017-1.155-1.347-2.464-1.198-3.523.174-1.236.832-2.152 2.396-2.557.828-.221 1.49-.975 1.608-1.83.336-2.345 1.467-3.785 3.046-4.63 1.58-.846 3.68-1.038 5.784-.346.96.318 2.114-.142 2.6-1.036 1.795-3.378 4.92-5.12 8.077-5.251zM30.23 34.026h3.764v17.619c0 2.26.91 4.25 2.327 5.493 1.417 1.244 3.21 1.775 4.962 1.762 1.753-.014 3.523-.59 4.928-1.831 1.405-1.24 2.362-3.19 2.362-5.424v-17.62h21.73l-5.92 47.71H36.184zm6.536 52.132H63.8l-.41 3.42H37.177z"
    fill-rule="evenodd"
    fill="currentColor"/>
</svg>
