<svg xmlns="http://www.w3.org/2000/svg" viewBox="0 0 100 100">
  <path
    style="text-indent:0;text-align:start;line-height:normal;text-transform:none;block-progression:tb;marker:none;-inkscape-font-specification:Sans"
    d="M50 6c-2.778 0-5.312.562-7.313 1.625-2 1.063-3.687 2.821-3.687 5.156V14h-7a2 2 0 00-2 2v4h-9c-2.735 0-5 2.265-5 5v64c0 2.735 2.264 5 5 5h58c2.736 0 5-2.265 5-5V25c0-2.735-2.265-5-5-5h-9v-4a2 2 0 00-2-2h-7v-1.219c0-2.335-1.687-4.093-3.688-5.156C55.313 6.562 52.779 6 50 6zm0 4c2.208 0 4.185.49 5.438 1.156 1.252.666 1.562 1.31 1.562 1.625V16a2 2 0 002 2h7v8H34v-8h7a2 2 0 002-2v-3.219c0-.315.31-.96 1.563-1.625C45.815 10.491 47.791 10 50 10zM21 24h9v4a2 2 0 002 2h36a2 2 0 002-2v-4h9c.589 0 1 .411 1 1v64c0 .589-.411 1-1 1H21c-.589 0-1-.411-1-1V25c0-.589.411-1 1-1zm18.75 13.969a2 2 0 00-1.156.593L34 43.157l-2.594-2.593a2 2 0 10-2.812 2.843l4 4a2 2 0 002.812 0l6-6a2 2 0 00-1.656-3.437zM51.813 43A2.002 2.002 0 1052 47h18a2 2 0 100-4H52a2 2 0 00-.188 0zM39.75 52.969a2 2 0 00-1.156.593L34 58.157l-2.594-2.593a2 2 0 10-2.812 2.843l4 4a2 2 0 002.812 0l6-6a2 2 0 00-1.656-3.437zM51.813 58A2.002 2.002 0 1052 62h18a2 2 0 100-4H52a2 2 0 00-.188 0zM39.75 67.969a2 2 0 00-1.156.594L34 73.156l-2.594-2.594a2 2 0 10-2.812 2.844l4 4a2 2 0 002.812 0l6-6a2 2 0 00-1.656-3.437zM51.813 73A2.002 2.002 0 1052 77h18a2 2 0 100-4H52a2 2 0 00-.188 0z"
    fill="currentColor"/>
</svg>
