<svg xmlns="http://www.w3.org/2000/svg" viewBox="0 0 100 100">
  <g fill="currentColor">
    <path
      d="M5273.1 2400.1v-2c0-2.8-5-4-9.7-4s-9.7 1.3-9.7 4v2c0 1.8.7 3.6 2 4.9l5 4.9c.3.3.4.6.4 1v6.4c0 .4.2.7.6.8l2.9.9c.5.1 1-.2 1-.8v-7.2c0-.4.2-.7.4-1l5.1-5c1.3-1.3 2-3.1 2-4.9zm-9.7-.1c-4.8 0-7.4-1.3-7.5-1.8.1-.5 2.7-1.8 7.5-1.8s7.3 1.3 7.5 1.8c-.2.5-2.7 1.8-7.5 1.8z"/>
    <path
      d="M5268.4 2410.3c-.6 0-1 .4-1 1s.4 1 1 1h4.3c.6 0 1-.4 1-1s-.4-1-1-1h-4.3zM5272.7 2413.7h-4.3c-.6 0-1 .4-1 1s.4 1 1 1h4.3c.6 0 1-.4 1-1s-.4-1-1-1zM5272.7 2417h-4.3c-.6 0-1 .4-1 1s.4 1 1 1h4.3c.6 0 1-.4 1-1 0-.5-.4-1-1-1z"/>
    <g>
      <path
        d="M38 27.5h3.3c.8 1.6 1.9 3.1 2.9 4.7.5.8 1.4 1.3 2.3 1.3h.7v4.2h-1.5c-1.2 0-2.1.9-2.1 2.1 0 1.2.9 2.1 2.1 2.1h8.5c1.2 0 2.1-.9 2.1-2.1 0-1.2-.9-2.1-2.1-2.1h-1.5v-4.2h.7c.9 0 1.8-.5 2.3-1.3 1-1.5 2.1-3.1 2.9-4.7H62c2.1 0 3.8-1.7 3.8-3.8v-3.6c0-2.1-1.7-3.8-3.8-3.8h-2.1v-1.2c0-1.3-1.1-2.4-2.4-2.4h-15c-1.3 0-2.4 1.1-2.4 2.4v1.2H38c-2.1 0-3.8 1.7-3.8 3.8v3.6c0 2.1 1.7 3.8 3.8 3.8zm21.9-4.4v-3.8H62c.4 0 .8.4.8.8v3.6c0 .4-.4.8-.8.8h-2.3c.1-.5.2-.9.2-1.4zm-22.7-3c0-.4.4-.8.8-.8h2.1v3.8c0 .5.1.9.2 1.3H38c-.4 0-.8-.4-.8-.8v-3.5zM6.4 42.3h3.3c.8 1.6 1.9 3.1 2.9 4.7.5.8 1.4 1.3 2.3 1.3h.7v4.2h-1.5c-1.2 0-2.1.9-2.1 2.1 0 1.2.9 2.1 2.1 2.1h8.5c1.2 0 2.1-.9 2.1-2.1 0-1.2-.9-2.1-2.1-2.1h-1.5v-4.2h.7c.9 0 1.8-.5 2.3-1.3 1-1.5 2.1-3.1 2.9-4.7h3.3c2.1 0 3.8-1.7 3.8-3.8v-3.6c0-2.1-1.7-3.8-3.8-3.8h-2.1v-1.2c0-1.3-1.1-2.4-2.4-2.4H10.9c-1.3 0-2.4 1.1-2.4 2.4v1.2H6.4c-2.1 0-3.8 1.7-3.8 3.8v3.6c0 2.1 1.7 3.8 3.8 3.8zm21.8-4.4v-3.8h2.1c.4 0 .8.4.8.8v3.6c0 .4-.4.8-.8.8H28c.1-.5.2-.9.2-1.4zm-22.6-3c0-.4.4-.8.8-.8h2.1v3.8c0 .5.1.9.2 1.3H6.4c-.4 0-.8-.4-.8-.8v-3.5zM69.7 42.3H73c.8 1.6 1.9 3.1 2.9 4.7.5.8 1.4 1.3 2.3 1.3h.7v4.2h-1.5c-1.2 0-2.1.9-2.1 2.1 0 1.2.9 2.1 2.1 2.1h8.5c1.2 0 2.1-.9 2.1-2.1 0-1.2-.9-2.1-2.1-2.1h-1.5v-4.2h.7c.9 0 1.8-.5 2.3-1.3 1-1.5 2.1-3.1 2.9-4.7h3.3c2.1 0 3.8-1.7 3.8-3.8v-3.6c0-2.1-1.7-3.8-3.8-3.8h-2.1v-1.2c0-1.3-1.1-2.4-2.4-2.4H74.2c-1.3 0-2.4 1.1-2.4 2.4v1.2h-2.1c-2.1 0-3.8 1.7-3.8 3.8v3.6c0 2.1 1.7 3.8 3.8 3.8zm21.8-4.4v-3.8h2.1c.4 0 .8.4.8.8v3.6c0 .4-.4.8-.8.8h-2.3c.1-.5.2-.9.2-1.4zm-22.6-3c0-.4.4-.8.8-.8h2.1v3.8c0 .5.1.9.2 1.3h-2.3c-.4 0-.8-.4-.8-.8v-3.5z"/>
      <path
        d="M94.7 60.5H65.8V48.6c0-1.5-1.3-2.8-2.8-2.8H37c-1.5 0-2.8 1.3-2.8 2.8v11.9H5.3c-1.5 0-2.8 1.3-2.8 2.8v21.2c0 1.5 1.3 2.8 2.8 2.8h89.4c1.5 0 2.8-1.3 2.8-2.8V63.3c0-1.5-1.3-2.8-2.8-2.8zm-70 13l-2.3 2c-.3.2-.4.6-.3.9l.7 2.9c.2.8-.7 1.4-1.4 1l-2.6-1.6c-.3-.2-.7-.2-1 0l-2.6 1.6c-.7.4-1.6-.2-1.4-1l.7-2.9c.1-.3 0-.7-.3-.9l-2.3-2c-.6-.5-.3-1.6.5-1.6l3-.2c.3 0 .6-.2.8-.6l1.2-2.8c.3-.8 1.4-.8 1.7 0l1.2 2.8c.1.3.4.5.8.6l3 .2c.9.1 1.2 1.1.6 1.6zm31.6-12.3l-2.3 2c-.3.2-.4.6-.3.9l.7 2.9c.2.8-.7 1.4-1.4 1l-2.6-1.6c-.3-.2-.7-.2-1 0L46.9 68c-.7.4-1.6-.2-1.4-1l.7-2.9c.1-.3 0-.7-.3-.9l-2.3-2c-.6-.5-.3-1.6.5-1.6l3-.2c.3 0 .6-.2.8-.6l1.2-2.8c.3-.8 1.4-.8 1.7 0l1.2 2.8c.1.3.4.5.8.6l3 .2c.8 0 1.2 1 .5 1.6zM88 73.5l-2.3 2c-.3.2-.4.6-.3.9l.7 2.9c.2.8-.7 1.4-1.4 1l-2.6-1.6c-.3-.2-.7-.2-1 0l-2.6 1.6c-.7.4-1.6-.2-1.4-1l.7-2.9c.1-.3 0-.7-.3-.9l-2.3-2c-.5-.5-.2-1.5.7-1.6l3-.2c.3 0 .6-.2.8-.6l1.2-2.8c.3-.8 1.4-.8 1.7 0l1.2 2.8c.1.3.4.5.8.6l3 .2c.7.1 1 1.1.4 1.6z"/>
    </g>
  </g>
</svg>
